<svg width="192" height="192" viewBox="0 0 24 24" fill="none" xmlns="http://www.w3.org/2000/svg">
  <rect width="24" height="24" rx="0" fill="#373D4A"/>
  <path d="M9.58331 5C7.33331 5 5.5 6.83333 5.5 9.08333V9.75C5.5 10.99 6.5 12 7.75 12H9.33331C10.0416 12 10.6666 11.4167 10.6666 10.75V7.41667C10.6666 6.08333 11.75 5 13.0833 5C14.4166 5 15.5 6.08333 15.5 7.41667V13.25C15.5 15.5 13.6666 17.3333 11.4166 17.3333H10.75C9.5 17.3333 8.5 16.3333 8.5 15.0833V14.5833C8.5 13.4167 9.41665 12.5 10.5833 12.5H13.8333C14.9166 12.5 15.5 11.9167 15.5 11.1667V10.25C15.5 9.08333 14.5833 8.16667 13.4166 8.16667H10.5C8.08331 8.16667 6.16665 10.1667 6.16665 12.5833V14.5C6.16665 17.3333 8.41665 19.5 11.25 19.5C14.0833 19.5 16.3333 17.3333 16.3333 14.5V7.91667C16.3333 6.08333 14.9166 5 13.0833 5C11.25 5 9.58331 6.08333 9.58331 7.41667" stroke="#FFF8F0" stroke-width="1.5" stroke-linecap="round" stroke-linejoin="round"/>
</svg>